<?xml version="1.0" encoding="utf-8"?>
<!-- Generator: Adobe Illustrator 24.2.1, SVG Export Plug-In . SVG Version: 6.00 Build 0)  -->
<svg version="1.1" id="Layer_1" xmlns="http://www.w3.org/2000/svg" xmlns:xlink="http://www.w3.org/1999/xlink" x="0px" y="0px"
	 viewBox="0 0 900 400" style="enable-background:new 0 0 900 400;" xml:space="preserve">
<style type="text/css">
	.st0{fill:#FEFEFE;}
	.st1{fill:#2D2D2C;}
	.st2{fill:#F6F5F3;}
</style>
<g>
	<path class="st0" d="M460.72,150.25c0,0,0.07,0.07,0.07,0.07c-0.8-3.51-7.63-10.08-11.71-11.25c-4.03-4.12-2.93-10.2-5.3-14.83
		c-2.57,0.8-1.55,2.83-1.96,4.32c-0.77,2.8-0.78,5.59-2.51,8.38c-3.24,5.23-7.68,9.06-12.1,13.01c-1.65,1.47-2.11,2.59-1.64,5.01
		c0.63,3.23,1.81,7.22-1.01,9.94c-1.8,1.74-1.46,2.43-0.03,3.77c2.91,2.73,3.44,6.07,2.98,9.99c-1.06,9.08-1.62,18.21-2.6,27.3
		c-1.9,17.65-2.81,35.4-5.41,52.98c-2.68,2.03-1.59,4.49-0.79,6.92c0.29,0.76,0.25,1.46-0.38,2.05c-2.73,0.17-5.7-0.27-7.31,2.82
		c-1.34,1.27-2.06,3.28-4.24,3.56c-2.93,0.63-5.83-3.04-8.77-0.05c-0.67,0.2-1.34,0.4-2.02,0.6c-2.48-1.65-3.18,1.39-4.86,1.84
		c-0.69-0.08-1.38-0.15-2.07-0.23c-0.82-2.28-2.39-1.47-3.59-0.65c-3.22,2.21-6.96,3-10.5,4.35c-1.21,0.46-3.63,0.2-3.35,2.16
		c0.3,2.13,2.56,1.63,4.15,1.64c10.47,0.04,20.94,0.11,31.41-0.02c2.92-0.03,5.96,0.89,8.76-0.72c1.39-0.41,2.79-0.42,4.17,0.04
		c1.27,1.08,2.54,1.07,3.81,0c10.02-0.5,20.04-0.39,30.05,0.03c0.28,1.46,1.34,1.7,2.59,1.69c12.57-0.02,25.13-0.02,37.7-0.08
		c0.56,0,1.12-0.57,1.68-0.88c6.97-0.81,13.96,0.01,20.94-0.18c3.58,2.45,7.61,0.01,11.35,1c0.35,0.09,1.11-0.6,1.37-1.09
		c0.35-0.67-0.16-1.51-0.75-1.54c-5.02-0.21-9.91-2.75-15.05-0.86c-3.62-1.06-7.24-2.12-10.87-3.18c-1.97-2.72-4.04-5.2-7.94-3.33
		c-0.69,0-1.38,0-2.08,0.01c-1.5-0.97-3.01-1.93-4.5-2.92c-1.33-0.89-2.61-1.72-3.47,0.51c-0.99,0-1.98,0-2.96,0
		c-0.33-1.18-0.79-1.95-1.96-0.67c-1.01-0.09-2.03-0.18-3.04-0.28c-0.62-1.86-1.63-2-2.97-0.68c-1.68,0.04-3.37,0.08-5.05,0.13
		c-0.75-3.67-0.63-7.68-4.16-10.24c-0.93-0.67-0.77-1.73-0.67-2.74c1.9-18.12,0.99-36.24-0.14-54.35c-0.08-1.26-0.27-2.32-1.73-2.61
		c-0.14-3.31-0.27-6.63-0.41-9.94c1.55-1.09,0.94-1.67-0.49-2.06c-0.18-2.97-0.36-5.94-0.54-8.92c1.64-2.21,2.06-4.33-0.49-6.21
		c-0.35-1.77,0.6-2.88,1.91-3.82c3.92-2.66,3.81-3.72-0.83-8.03c-0.46-1.32-0.41-2.64,0-3.96c2.26-1.01,1.88-2.43,0.62-3.99
		c0.01-0.69,0.01-1.37,0.02-2.06C463.52,149.95,461.91,150.26,460.72,150.25z"/>
	<path class="st1" d="M462.28,170.05c-1.31,0.94-2.26,2.05-1.91,3.82c-0.19,2.1-0.58,4.21,0.49,6.21c0.18,2.97,0.36,5.94,0.54,8.92
		c-0.18,0.77-0.37,1.54,0.49,2.06c0.14,3.31,0.27,6.63,0.41,9.94c-0.38,1.83,0.38,3.82-1.02,6.11c-1.45-10.52-2.85-20.51-4.18-30.5
		c-0.3-2.3,0.02-5.08-3.53-4.62c-3.37,0.44-1.56,3.25-1.54,4.76c0.47,30.23,1.13,60.47,1.73,90.7c0.16,8.12,0.17,7.78,7.94,9.02
		c4.96,0.8,7.99,0.48,7.29-5.53c1.68-0.04,3.37-0.08,5.05-0.13c0.73,1.37,1.88,0.91,2.97,0.68c1.01,0.09,2.03,0.18,3.04,0.28
		c0.37,1.06,1.12,1,1.96,0.67c0.99,0,1.98,0,2.96,0c2.6,1,4.36,4.74,7.97,2.41c0.69,0,1.38,0,2.08-0.01
		c2.71,0.96,4.92,3.12,7.94,3.33c3.62,1.06,7.24,2.12,10.87,3.18c1.03,0.83,2.05,1.65,3.08,2.48c-6.98,0.19-13.97-0.63-20.94,0.18
		c-13.98-1-27.97-1-41.97-0.74c-10.02-0.42-20.04-0.53-30.05-0.03c-1.27-0.71-2.54-0.71-3.81,0c-1.39-0.46-2.78-0.45-4.17-0.04
		c-1.5-1.1-3.21-0.56-4.82-0.56c-11.21-0.05-22.42-0.03-33.64-0.03c-0.07-0.44-0.14-0.87-0.22-1.31c3.93-1.62,7.86-3.25,11.79-4.87
		c0.69,0.08,1.38,0.15,2.07,0.23c2.23,0.99,3.41-0.77,4.86-1.84c0.67-0.2,1.34-0.4,2.02-0.6c2.93-0.5,5.83,2.84,8.77,0.05
		c2.17-0.28,2.9-2.29,4.24-3.56c2.29-1.31,5.5-0.25,7.31-2.82c0.63-0.59,0.67-1.29,0.38-2.05c1.24-2.19,0.96-4.56,0.79-6.92
		c2.6-17.58,3.51-35.33,5.41-52.98c0.98-9.09,1.54-18.22,2.6-27.3c0.46-3.92-0.07-7.25-2.98-9.99c-1.43-1.34-1.77-2.04,0.03-3.77
		c2.82-2.71,1.64-6.7,1.01-9.94c-0.47-2.42-0.01-3.54,1.64-5.01c4.42-3.95,8.86-7.79,12.1-13.01c1.73-2.79,1.74-5.59,2.51-8.38
		c0.41-1.49-0.61-3.52,1.96-4.32c2.38,4.63,1.27,10.7,5.3,14.83c-0.47,2.99,0.1,5.86,0.83,8.75c0.85,3.41,4.05,2.1,6.07,3.15
		c1.28,0.67,2.24,0.13,1.79-1.59l0.24-0.33c0.93,0.43,1.86,0.86,2.79,1.28c0,0-0.07-0.07-0.07-0.07c0.1,0.86,0.33,1.63,1.37,1.76
		c-0.01,0.69-0.01,1.37-0.02,2.06c-1.37,1.15-1.08,2.56-0.62,3.99c-0.41,1.32-0.46,2.64,0,3.96
		C460.22,164.85,465.25,167.03,462.28,170.05z M448.71,157.4c0.05-6.4,0.05-6.32-4.81-6.49c-3.04-0.1-5.24-0.13-5.06,4.2
		c0.31,7.51,0.04,7.17,6.08,7.67C450.01,163.2,448.46,159.88,448.71,157.4z M436.05,157.79c-0.71-1.8,1.16-4.52-1.21-5.61
		c-1.7-0.78-4.54,0.08-5.28,1.6c-1.35,2.79-0.89,6.2-0.28,9.19c0.38,1.85,2.47,0.14,3.79,0.19
		C437.45,163.34,435.47,159.92,436.05,157.79z M452.07,156.96c-0.74,4.05-0.42,7.22,4.04,6.88c4.28-0.32,1.29-3.81,1.87-5.75
		c1.04-3.47-0.69-5.93-4.27-5.79C449.74,152.46,453.03,155.98,452.07,156.96z M439.19,189.48c-0.04,0-0.08,0-0.11,0
		c0-1.48,0.06-2.97-0.02-4.44c-0.07-1.39-0.48-2.79-2.16-2.74c-1.69,0.06-1.95,1.56-1.99,2.9c-0.08,2.63-0.08,5.27-0.05,7.9
		c0.02,1.28-0.16,2.68,1.92,2.68c2.09,0,2.47-1.15,2.41-2.84C439.16,191.78,439.19,190.63,439.19,189.48z"/>
	<path class="st2" d="M468.99,270.93c0.7,6.01-2.34,6.32-7.29,5.53c-7.77-1.25-7.78-0.9-7.94-9.02c-0.59-30.23-1.25-60.46-1.73-90.7
		c-0.02-1.51-1.83-4.32,1.54-4.76c3.55-0.46,3.23,2.33,3.53,4.62c1.33,10,2.73,19.98,4.18,30.5c1.4-2.29,0.64-4.28,1.02-6.11
		c1.46,0.29,1.65,1.35,1.73,2.61c1.13,18.11,2.04,36.23,0.14,54.35c-0.11,1.01-0.26,2.07,0.67,2.74
		C468.36,263.25,468.24,267.27,468.99,270.93z"/>
	<path class="st2" d="M389.07,276.43c-3.93,1.62-7.86,3.25-11.79,4.87c0.07,0.44,0.14,0.87,0.22,1.31c11.21,0,22.42-0.03,33.64,0.03
		c1.61,0.01,3.32-0.54,4.82,0.56c-2.8,1.61-5.85,0.69-8.76,0.72c-10.47,0.12-20.94,0.05-31.41,0.02c-1.58-0.01-3.85,0.49-4.15-1.64
		c-0.28-1.96,2.14-1.7,3.35-2.16c3.54-1.35,7.29-2.14,10.5-4.35C386.68,274.96,388.25,274.15,389.07,276.43z"/>
	<path class="st2" d="M453.99,283.26c14-0.26,27.99-0.26,41.97,0.74c-0.56,0.31-1.12,0.87-1.68,0.88
		c-12.57,0.06-25.13,0.06-37.7,0.08C455.32,284.96,454.27,284.72,453.99,283.26z"/>
	<path class="st2" d="M457.77,149.38c0.45,1.72-0.51,2.26-1.79,1.59c-2.01-1.05-5.21,0.26-6.07-3.15c-0.73-2.89-1.3-5.76-0.83-8.75
		c4.08,1.18,10.91,7.75,11.71,11.25c-0.93-0.43-1.86-0.86-2.79-1.28c-0.01-0.67-0.38-0.97-1.02-0.98c-0.38-0.99-0.78-1.93-2.04-0.89
		c0.93-1.89-0.43-1.98-1.7-2.22c0.01,1.27,0.77,1.78,1.77,2.09c0.45,0.87,0.8,1.95,2.1,0.94C456.25,148.96,457,149.17,457.77,149.38
		z"/>
	<path class="st2" d="M516.9,283.82c-1.03-0.83-2.05-1.65-3.08-2.48c5.13-1.89,10.03,0.65,15.05,0.86c0.59,0.03,1.11,0.87,0.75,1.54
		c-0.26,0.49-1.02,1.18-1.37,1.09C524.51,283.83,520.48,286.27,516.9,283.82z"/>
	<path class="st2" d="M492.94,274.84c-3.61,2.33-5.37-1.42-7.97-2.41c0.86-2.23,2.14-1.4,3.47-0.51
		C489.93,272.91,491.44,273.87,492.94,274.84z"/>
	<path class="st2" d="M462.28,170.05c2.97-3.01-2.06-5.2-0.83-8.03C466.09,166.33,466.2,167.38,462.28,170.05z"/>
	<path class="st2" d="M502.96,278.16c-3.02-0.21-5.23-2.37-7.94-3.33C498.91,272.96,500.98,275.44,502.96,278.16z"/>
	<path class="st2" d="M418.33,267.9c-1.81,2.57-5.01,1.51-7.31,2.82C412.63,267.63,415.6,268.07,418.33,267.9z"/>
	<path class="st2" d="M406.78,274.27c-2.94,2.78-5.84-0.56-8.77-0.05C400.95,271.24,403.85,274.91,406.78,274.27z"/>
	<path class="st2" d="M419.51,258.94c0.17,2.36,0.45,4.72-0.79,6.92C417.91,263.43,416.83,260.97,419.51,258.94z"/>
	<path class="st2" d="M460.86,180.08c-1.07-2-0.68-4.11-0.49-6.21C462.92,175.75,462.51,177.87,460.86,180.08z"/>
	<path class="st2" d="M396,274.82c-1.45,1.07-2.63,2.83-4.86,1.84C392.82,276.21,393.52,273.17,396,274.82z"/>
	<path class="st2" d="M461.45,158.06c-0.46-1.44-0.74-2.84,0.62-3.99C463.33,155.63,463.71,157.05,461.45,158.06z"/>
	<path class="st2" d="M420.12,283.23c1.27-0.71,2.54-0.71,3.81,0C422.66,284.3,421.39,284.31,420.12,283.23z"/>
	<path class="st2" d="M477.01,271.49c-1.1,0.23-2.24,0.69-2.97-0.68C475.38,269.49,476.39,269.63,477.01,271.49z"/>
	<path class="st2" d="M462.09,152.01c-1.04-0.13-1.27-0.89-1.37-1.76C461.91,150.26,463.52,149.95,462.09,152.01z"/>
	<path class="st2" d="M461.89,191.05c-0.85-0.52-0.66-1.29-0.49-2.06C462.83,189.38,463.44,189.96,461.89,191.05z"/>
	<path class="st2" d="M482.01,272.43c-0.84,0.34-1.59,0.39-1.96-0.67C481.21,270.48,481.68,271.25,482.01,272.43z"/>
	<path class="st1" d="M455.01,147.04c-1-0.31-1.77-0.82-1.77-2.09c1.28,0.24,2.63,0.33,1.7,2.22L455.01,147.04z"/>
	<path class="st1" d="M454.95,147.17c1.27-1.04,1.67-0.1,2.04,0.89c0,0,0.12-0.08,0.12-0.08c-1.29,1.01-1.65-0.07-2.1-0.94
		C455.01,147.04,454.95,147.17,454.95,147.17z"/>
	<path class="st1" d="M457.77,149.38c-0.77-0.21-1.52-0.42-0.66-1.4c0,0-0.12,0.08-0.12,0.08c0.64,0.01,1.01,0.31,1.02,0.98
		C458.01,149.04,457.77,149.38,457.77,149.38z"/>
</g>
</svg>
